<?xml version="1.0" encoding="UTF-8"?>
<!DOCTYPE svg  PUBLIC '-//W3C//DTD SVG 20010904//EN'  'http://www.w3.org/TR/2001/REC-SVG-20010904/DTD/svg10.dtd'>
<svg width="512pt" height="512pt" version="1.0" viewBox="0 0 512 512" stroke="currentColor" xmlns="http://www.w3.org/2000/svg">
<g transform="translate(0 512) scale(.1 -.1)">
<path d="m410 3426c0-1012 4-1622 10-1655 24-126 90-246 204-368 105-112 191-178 506-385 146-96 526-347 844-557s584-380 591-378c6 3 119 76 251 162 131 87 363 239 514 338 651 427 1010 669 1073 725 134 118 221 235 274 368l28 69 3 1643 2 1642h-2150-2150v-1604zm3748-233-3-1308-28-57c-46-94-132-162-543-433-209-137-525-345-703-463l-323-213-697 460c-737 488-819 549-869 652l-22 46v1312 1311h1595 1595l-2-1307z"/>
<path d="m2160 3720v-420h-415-415v-380-380h415 415v-425-425h400 400l2 423 3 422 408 3 407 2v380 380l-407 2-408 3-3 418-2 417h-400-400v-420z"/>
</g>
</svg>
