<?xml version="1.0" standalone="no"?>
<!DOCTYPE svg PUBLIC "-//W3C//DTD SVG 20010904//EN"
 "http://www.w3.org/TR/2001/REC-SVG-20010904/DTD/svg10.dtd">
<svg version="1.0" xmlns="http://www.w3.org/2000/svg"
 width="700.000000pt" height="700.000000pt" viewBox="0 0 700.000000 700.000000"
 preserveAspectRatio="xMidYMid meet">
<metadata>
Created by potrace 1.14, written by Peter Selinger 2001-2017
</metadata>
<g transform="translate(0.000000,700.000000) scale(0.100000,-0.100000)"
fill="#000000" stroke="none">
<path d="M563 4676 c3 -1211 8 -2222 11 -2248 9 -67 61 -206 104 -277 118
-194 269 -346 518 -522 141 -100 228 -160 251 -174 9 -5 89 -58 177 -116 89
-58 276 -181 416 -274 140 -92 286 -188 323 -214 38 -25 76 -50 85 -56 8 -5
81 -53 161 -106 486 -319 649 -424 876 -564 21 -13 18 -15 170 83 109 70 270
176 515 337 124 81 277 182 340 223 329 216 1252 832 1365 912 260 184 433
394 536 651 l21 54 4 2246 3 2245 -2940 0 -2941 0 5 -2200z m5120 -310 l-1
-1787 -33 -65 c-73 -144 -170 -222 -815 -650 -517 -342 -676 -448 -686 -452
-13 -6 -533 -351 -545 -361 -7 -6 -15 -11 -18 -11 -4 0 -21 -11 -39 -25 -18
-14 -39 -25 -46 -25 -8 0 -43 20 -79 44 -37 24 -201 132 -366 241 -878 579
-1390 925 -1510 1020 -80 64 -157 149 -187 208 l-31 62 -1 1792 -1 1792 40 3
c22 2 1003 2 2180 2 l2140 -2 -2 -1786z"/>
<path d="M2952 5113 c0 -302 -1 -560 -1 -575 l-1 -28 -565 0 -565 0 0 -77 c-1
-68 -1 -768 0 -910 l0 -51 561 0 c308 0 563 -3 566 -6 4 -3 6 -265 6 -581 l0
-575 548 0 548 0 1 478 c0 262 2 522 3 577 l2 100 155 2 c85 1 336 2 558 3
l402 2 0 519 0 519 -112 1 c-514 4 -930 7 -964 8 l-41 1 -1 113 c0 61 -1 318
-2 570 l-1 457 -548 0 -548 0 -1 -547z"/>
</g>
</svg>
