<?xml version="1.0" encoding="UTF-8" standalone="no"?>
<svg
   xmlns:dc="http://purl.org/dc/elements/1.1/"
   xmlns:cc="http://creativecommons.org/ns#"
   xmlns:rdf="http://www.w3.org/1999/02/22-rdf-syntax-ns#"
   xmlns:svg="http://www.w3.org/2000/svg"
   xmlns="http://www.w3.org/2000/svg"
   xmlns:sodipodi="http://sodipodi.sourceforge.net/DTD/sodipodi-0.dtd"
   xmlns:inkscape="http://www.inkscape.org/namespaces/inkscape"
   version="1.1"
   width="1024"
   height="1024"
   viewBox="-0.9 -0.9 1.8 1.8"
   id="svg74"
   sodipodi:docname="Trans_UMA-symbol-v0.svg"
   inkscape:version="1.0.1 (c497b03c, 2020-09-10)">
  <metadata
     id="metadata80">
    <rdf:RDF>
      <cc:Work
         rdf:about="">
        <dc:format>image/svg+xml</dc:format>
        <dc:type
           rdf:resource="http://purl.org/dc/dcmitype/StillImage" />
        <dc:title></dc:title>
      </cc:Work>
    </rdf:RDF>
  </metadata>
  <defs
     id="defs78" />
  <sodipodi:namedview
     pagecolor="#ffffff"
     bordercolor="#666666"
     borderopacity="1"
     objecttolerance="10"
     gridtolerance="10"
     guidetolerance="10"
     inkscape:pageopacity="0"
     inkscape:pageshadow="2"
     inkscape:window-width="1251"
     inkscape:window-height="943"
     id="namedview76"
     showgrid="false"
     inkscape:zoom="0.81687134"
     inkscape:cx="511.79933"
     inkscape:cy="542.21864"
     inkscape:window-x="2174"
     inkscape:window-y="25"
     inkscape:window-maximized="0"
     inkscape:current-layer="svg74" />
  <polygon
     fill="#ffff00"
     stroke="#000000"
     points="-1.6979866e-17,-0.57263244 -0.19492718,-0.65908812 -4.875518e-17,-0.73769823 0.19492718,-0.65908812 "
     id="polygon18"
     style="stroke-width:0;stroke-linejoin:round;stroke-opacity:0.5" />
  <polygon
     fill="#ffff00"
     stroke="#000000"
     points="0.25160907,-0.461729 0.036205643,-0.55726647 0.23113283,-0.64372216 0.44551446,-0.55726647 "
     id="polygon20"
     style="stroke-width:0;stroke-linejoin:round;stroke-opacity:0.5" />
  <polygon
     fill="#ffff00"
     stroke="#000000"
     points="0.53092341,-0.33860658 0.29163848,-0.44473618 0.48554386,-0.54027366 0.72244534,-0.44473618 "
     id="polygon22"
     style="stroke-width:0;stroke-linejoin:round;stroke-opacity:0.5" />
  <polygon
     fill="#ffff00"
     stroke="#000000"
     points="-0.25160907,-0.461729 -0.44551446,-0.55726647 -0.23113283,-0.64372216 -0.036205643,-0.55726647 "
     id="polygon24"
     style="stroke-width:0;stroke-linejoin:round;stroke-opacity:0.5" />
  <polygon
     fill="#ffff00"
     stroke="#000000"
     points="1.3503554e-17,-0.33860658 -0.21540343,-0.44473618 -1.1931861e-17,-0.54027366 0.21540343,-0.44473618 "
     id="polygon26"
     style="stroke-width:0;stroke-linejoin:round;stroke-opacity:0.5" />
  <polygon
     fill="#ffff00"
     stroke="#000000"
     points="0.28092972,-0.20112669 0.040243228,-0.31971328 0.25564666,-0.42584288 0.4949316,-0.31971328 "
     id="polygon28"
     style="stroke-width:0;stroke-linejoin:round;stroke-opacity:0.5;fill:#4e9a06" />
  <polygon
     fill="#ffff00"
     stroke="#000000"
     points="-0.53092341,-0.33860658 -0.72244534,-0.44473618 -0.48554386,-0.54027366 -0.29163848,-0.44473618 "
     id="polygon30"
     style="stroke-width:0;stroke-linejoin:round;stroke-opacity:0.5" />
  <polygon
     fill="#ffff00"
     stroke="#000000"
     points="-0.28092972,-0.20112669 -0.4949316,-0.31971328 -0.25564666,-0.42584288 -0.040243228,-0.31971328 "
     id="polygon32"
     style="stroke-width:0;stroke-linejoin:round;stroke-opacity:0.5" />
  <polygon
     fill="#ffff00"
     stroke="#000000"
     points="6.6713669e-17,-0.046620497 -0.24068649,-0.17999405 1.9880219e-17,-0.29858065 0.24068649,-0.17999405 "
     id="polygon34"
     style="stroke-width:0;stroke-linejoin:round;stroke-opacity:0.5" />
  <polygon
     fill="#ff9800"
     stroke="#000000"
     points="0.24803784,0.13016858 0.020111177,0.27226173 0.020111177,-0.011857046 0.26079767,-0.1452306 "
     id="polygon36"
     style="stroke-width:0;stroke-linejoin:round;stroke-opacity:0.5" />
  <polygon
     fill="#ff9800"
     stroke="#000000"
     points="0.4911942,-0.019947749 0.28726835,0.10718291 0.30002817,-0.16821627 0.51403005,-0.28680287 "
     id="polygon38"
     style="stroke-width:0;stroke-linejoin:round;stroke-opacity:0.5" />
  <polygon
     fill="#ff9800"
     stroke="#000000"
     points="0.70979661,-0.15491987 0.52627023,-0.040506563 0.54910607,-0.30736168 0.74062799,-0.41349128 "
     id="polygon40"
     style="stroke-width:0;stroke-linejoin:round;stroke-opacity:0.5" />
  <polygon
     fill="#ff9800"
     stroke="#000000"
     points="0.23555031,0.42476013 0.019098674,0.57310088 0.019098674,0.31918419 0.24702534,0.17709104 "
     id="polygon42"
     style="stroke-width:0;stroke-linejoin:round;stroke-opacity:0.5" />
  <polygon
     fill="#ff9800"
     stroke="#000000"
     points="0.46759436,0.2669786 0.27284524,0.40044597 0.28432026,0.15277688 0.48824612,0.025646213 "
     id="polygon44"
     style="stroke-width:0;stroke-linejoin:round;stroke-opacity:0.5" />
  <polygon
     fill="#ff9800"
     stroke="#000000"
     points="0.67728568,0.12438494 0.50113089,0.24510906 0.52178265,0.0037766734 0.70530904,-0.11063663 "
     id="polygon46"
     style="stroke-width:0;stroke-linejoin:round;stroke-opacity:0.5" />
  <polygon
     fill="#ff9800"
     stroke="#000000"
     points="0.22425989,0.69084926 0.018183234,0.84355085 0.018183234,0.61526352 0.23463487,0.46692277 "
     id="polygon48"
     style="stroke-width:0;stroke-linejoin:round;stroke-opacity:0.5" />
  <polygon
     fill="#ff9800"
     stroke="#000000"
     points="0.44615925,0.52748625 0.25980186,0.66557598 0.27017685,0.44164949 0.46492597,0.30818212 "
     id="polygon50"
     style="stroke-width:0;stroke-linejoin:round;stroke-opacity:0.5" />
  <polygon
     fill="#ff9800"
     stroke="#000000"
     points="0.64762396,0.37915861 0.4782847,0.50463801 0.49705142,0.28533387 0.67320621,0.16460975 "
     id="polygon52"
     style="stroke-width:0;stroke-linejoin:round;stroke-opacity:0.5" />
  <polygon
     fill="#4caf50"
     stroke="#000000"
     points="-0.52697572,-0.039775648 -0.7105021,-0.15418895 -0.74133348,-0.41276036 -0.54981156,-0.30663077 "
     id="polygon54"
     style="stroke-width:0;stroke-linejoin:round;stroke-opacity:0.5" />
  <polygon
     fill="#4caf50"
     stroke="#000000"
     points="-0.28815741,0.1079368 -0.49208326,-0.019193861 -0.51491911,-0.28604898 -0.30091723,-0.16746238 "
     id="polygon56"
     style="stroke-width:0;stroke-linejoin:round;stroke-opacity:0.5" />
  <polygon
     fill="#4caf50"
     stroke="#000000"
     points="-0.021237043,0.27303111 -0.24916371,0.13093796 -0.26192353,-0.14446123 -0.021237043,-0.01108767 "
     id="polygon58"
     style="stroke-width:0;stroke-linejoin:round;stroke-opacity:0.5" />
  <polygon
     fill="#4caf50"
     stroke="#000000"
     points="-0.50178132,0.2456659 -0.67793611,0.12494177 -0.70595947,-0.11007979 -0.52243309,0.0043335103 "
     id="polygon60"
     style="stroke-width:0;stroke-linejoin:round;stroke-opacity:0.5" />
  <polygon
     fill="#4caf50"
     stroke="#000000"
     points="-0.27365495,0.40100509 -0.46840407,0.26753772 -0.48905583,0.026205334 -0.28512998,0.153336 "
     id="polygon62"
     style="stroke-width:0;stroke-linejoin:round;stroke-opacity:0.5" />
  <polygon
     fill="#4caf50"
     stroke="#000000"
     points="-0.020111177,0.57365214 -0.23656282,0.42531139 -0.24803784,0.1776423 -0.020111177,0.31973545 "
     id="polygon64"
     style="stroke-width:0;stroke-linejoin:round;stroke-opacity:0.5" />
  <polygon
     fill="#4caf50"
     stroke="#000000"
     points="-0.47888607,0.50505759 -0.64822533,0.37957819 -0.67380758,0.16502934 -0.49765279,0.28575346 "
     id="polygon66"
     style="stroke-width:0;stroke-linejoin:round;stroke-opacity:0.5" />
  <polygon
     fill="#4caf50"
     stroke="#000000"
     points="-0.26054231,0.66598383 -0.4468997,0.52789411 -0.46566642,0.30858997 -0.27091729,0.44205734 "
     id="polygon68"
     style="stroke-width:0;stroke-linejoin:round;stroke-opacity:0.5" />
  <polygon
     fill="#4caf50"
     stroke="#000000"
     points="-0.019098674,0.84393563 -0.22517533,0.69123404 -0.23555031,0.46730755 -0.019098674,0.6156483 "
     id="polygon70"
     style="stroke-width:0;stroke-linejoin:round;stroke-opacity:0.5" />
  <path
     style="fill:#73d216;stroke:none;stroke-width:0;stroke-opacity:0.2"
     d="m 445.14245,447.45978 c -36.78916,-20.3938 -66.88504,-37.4119 -66.87973,-37.81801 0.005,-0.4061 30.09797,-15.57672 66.87256,-33.71247 l 66.86289,-32.9741 66.87438,32.94425 c 36.78091,18.11934 66.87439,33.31456 66.87439,33.76715 0,0.4526 -30.0859,17.48413 -66.85755,37.84786 l -66.85755,37.02495 z"
     id="path109"
     transform="matrix(0.00175781,0,0,0.00175781,-0.9,-0.9)" />
  <path
     style="fill:#73d216;stroke:none;stroke-width:0;stroke-opacity:0.2"
     d="m 604.99592,363.89324 c -36.58885,-18.05322 -66.52517,-33.23284 -66.52517,-33.73248 0,-0.80934 114.1498,-57.63318 117.9924,-58.73669 1.66449,-0.47801 134.13292,57.57216 134.16013,58.7915 0.0125,0.5604 -81.92678,46.38073 -113.5294,63.48547 l -5.57279,3.01624 z"
     id="path111"
     transform="matrix(0.00175781,0,0,0.00175781,-0.9,-0.9)" />
  <path
     style="fill:#73d216;stroke:none;stroke-width:0;stroke-opacity:0.2"
     d="M 755.11293,292.51402 C 724.46259,278.81868 694.99646,265.66841 689.63265,263.2912 l -9.75238,-4.32221 53.49392,-26.3879 c 29.42166,-14.51334 54.18574,-26.39127 55.03129,-26.3954 2.12028,-0.0103 131.73641,52.08364 131.74352,52.949 0.0112,1.36436 -103.40179,57.82193 -106.32765,58.04882 -1.63929,0.12712 -28.05808,-10.97415 -58.70842,-24.66949 z"
     id="path113"
     transform="matrix(0.00175781,0,0,0.00175781,-0.9,-0.9)" />
  <path
     style="fill:#73d216;stroke:none;stroke-width:0;stroke-opacity:0.2"
     d="M 600.46803,224.28252 C 571.3502,211.32011 544.74008,199.38835 541.33441,197.76749 l -6.19211,-2.94701 54.25742,-24.12444 54.25742,-24.12444 4.87619,2.03594 c 2.68191,1.11977 29.01334,11.75228 58.51429,23.6278 29.50095,11.87552 54.02377,22.02318 54.49516,22.55036 0.8805,0.98473 -104.23505,53.33815 -106.74006,53.16252 -0.76626,-0.0537 -25.21687,-10.70329 -54.33469,-23.6657 z"
     id="path115"
     transform="matrix(0.00175781,0,0,0.00175781,-0.9,-0.9)" />
  <path
     style="fill:#73d216;stroke:none;stroke-width:0;stroke-opacity:0.2"
     d="m 459.7551,162.2639 c -28.35156,-12.58266 -52.71706,-23.3882 -54.14555,-24.01231 -1.9406,-0.84785 11.19879,-6.68383 51.97,-23.08296 l 54.56724,-21.94822 54.29834,21.85162 c 29.86409,12.01839 54.12494,21.99331 53.913,22.16649 -0.78285,0.63967 -108.04337,48.05397 -108.53986,47.97983 -0.28318,-0.0423 -23.7116,-10.3718 -52.06317,-22.95445 z"
     id="path117"
     transform="matrix(0.00175781,0,0,0.00175781,-0.9,-0.9)" />
  <path
     style="fill:#73d216;stroke:none;stroke-width:0;stroke-opacity:0.2"
     d="m 315.21088,221.9871 c -28.92625,-14.33118 -52.59319,-26.44189 -52.59319,-26.91268 0,-0.47079 26.52327,-11.55009 58.94061,-24.62068 l 58.94061,-23.76471 53.90837,23.82525 c 29.6496,13.1039 53.89594,24.14131 53.88074,24.5276 -0.03,0.7635 -114.4922,51.55132 -118.21311,52.45215 -1.24896,0.30237 -25.93777,-11.17575 -54.86403,-25.50693 z"
     id="path119"
     transform="matrix(0.00175781,0,0,0.00175781,-0.9,-0.9)" />
  <path
     style="fill:#73d216;stroke:none;stroke-width:0;stroke-opacity:0.2"
     d="m 157.0414,289.17668 c -29.24225,-16.13996 -53.18583,-29.81559 -53.20796,-30.39029 -0.0221,-0.57469 0.5223,-1.04489 1.20985,-1.04489 0.68755,0 29.99693,-11.59825 65.13197,-25.77389 35.13503,-14.17563 64.56466,-25.774 65.39916,-25.77414 0.83451,-1.5e-4 25.59859,11.85581 55.03129,26.34658 l 53.51402,26.34685 -6.26939,2.8235 c -3.44816,1.55292 -33.57805,14.97084 -66.95531,29.81759 l -60.68591,26.99408 z"
     id="path121"
     transform="matrix(0.00175781,0,0,0.00175781,-0.9,-0.9)" />
  <path
     style="fill:#73d216;stroke:none;stroke-width:0;stroke-opacity:0.2"
     d="m 292.83058,363.76435 c -32.68972,-18.084 -59.43182,-33.19347 -59.4269,-33.57659 0.015,-1.16863 132.67352,-59.24271 134.23378,-58.76369 4.06188,1.24705 117.89179,57.9588 117.89179,58.73544 0,0.49894 -29.98414,15.66215 -66.63141,33.696 l -66.63142,32.78883 z"
     id="path123"
     transform="matrix(0.00175781,0,0,0.00175781,-0.9,-0.9)" />
  <path
     style="fill:#a40000;stroke:none;stroke-width:0;stroke-opacity:0.2"
     d="m 450.69932,288.25189 -59.21088,-29.27828 59.81212,-26.47776 c 39.11338,-17.31479 60.80939,-26.2198 62.69387,-25.73234 1.58497,0.40997 28.89378,12.32703 60.68625,26.48235 l 57.8045,25.73695 -59.19769,29.31139 c -32.55873,16.12126 -60.1381,29.29442 -61.28749,29.27368 -1.14939,-0.0207 -28.73469,-13.21294 -61.30068,-29.31599 z"
     id="path125"
     transform="matrix(0.00175781,0,0,0.00175781,-0.9,-0.9)" />
  <path
     style="fill:#a40000;stroke:none;stroke-width:0;stroke-opacity:0.2"
     d="M 159.52109,455.59914 C 131.55265,438.09603 108.51143,422.93687 108.31836,421.91213 107.3926,416.99838 91.274145,279.55179 91.589295,279.25869 c 0.198949,-0.18504 23.871925,12.74449 52.606625,28.73228 28.73469,15.98779 52.71916,29.24796 53.29882,29.46705 1.04202,0.39384 13.97594,145.14822 13.25265,148.32149 -0.20603,0.90391 -23.25787,-12.67726 -51.2263,-30.18037 z"
     id="path127"
     transform="matrix(0.00175781,0,0,0.00175781,-0.9,-0.9)" />
  <path
     style="fill:#a40000;stroke:none;stroke-width:0;stroke-opacity:0.2"
     d="M 289.08844,535.77898 232.66395,500.458 226.26479,426.12015 c -3.51953,-40.88581 -6.25386,-74.52922 -6.07628,-74.76314 0.22736,-0.2995 118.48135,64.57506 119.90163,65.77847 0.0825,0.0699 1.49987,30.84711 3.14969,68.39377 1.64983,37.54667 3.35631,72.18504 3.79218,76.97415 0.43587,4.78912 0.27239,8.68253 -0.3633,8.65204 -0.63568,-0.0305 -26.54681,-15.94991 -57.58027,-35.37646 z"
     id="path129"
     transform="matrix(0.00175781,0,0,0.00175781,-0.9,-0.9)" />
  <path
     style="fill:#a40000;stroke:none;stroke-width:0;stroke-opacity:0.2"
     d="m 435.37415,626.24705 -63.39048,-39.57554 -0.97335,-5.98881 c -1.18232,-7.27453 -7.20523,-143.07985 -6.49575,-146.46694 0.40485,-1.93276 13.63289,4.87215 67.72489,34.83977 l 67.22176,37.24168 v 79.82555 c 0,43.90405 -0.15673,79.79726 -0.34829,79.76268 -0.19157,-0.0346 -28.87402,-17.87184 -63.73878,-39.63839 z"
     id="path131"
     transform="matrix(0.00175781,0,0,0.00175781,-0.9,-0.9)" />
  <path
     style="fill:#a40000;stroke:none;stroke-width:0;stroke-opacity:0.2"
     d="m 439.45103,795.46173 c -32.49218,-22.25116 -59.59668,-40.97664 -60.23221,-41.61216 -0.89383,-0.89383 -8.21487,-138.00106 -7.42121,-138.98323 0.10234,-0.12664 28.86851,17.64812 63.92484,39.49946 l 63.73877,39.72971 v 70.91143 c 0,39.00129 -0.21003,70.91143 -0.46674,70.91143 -0.25671,0 -27.05126,-18.2055 -59.54345,-40.45664 z"
     id="path133"
     transform="matrix(0.00175781,0,0,0.00175781,-0.9,-0.9)" />
  <path
     style="fill:#a40000;stroke:#666af6;stroke-width:0;stroke-opacity:0.2"
     d="m 442.34014,947.57204 -57.81769,-42.91079 -2.29979,-50.74151 c -1.26489,-27.90783 -2.5914,-56.13267 -2.9478,-62.72187 l -0.64801,-11.98037 61.11379,41.86611 61.11378,41.86611 v 63.80678 c 0,35.09372 -0.15673,63.78867 -0.3483,63.76654 -0.19156,-0.0221 -26.36626,-19.35007 -58.16598,-42.951 z"
     id="path135"
     transform="matrix(0.00175781,0,0,0.00175781,-0.9,-0.9)" />
  <path
     style="fill:#a40000;stroke:none;stroke-width:0;stroke-opacity:0.2"
     d="m 311.35725,851.03371 c -27.95615,-20.70124 -51.2989,-38.08729 -51.87279,-38.63565 -1.20838,-1.15465 -11.1328,-113.21494 -10.51488,-118.72747 0.39321,-3.50786 2.94106,-1.94728 53.87195,32.99699 29.40257,20.17344 53.65411,36.87386 53.8923,37.11205 0.58936,0.58937 6.41521,123.93029 5.87902,124.46647 -0.23444,0.23445 -23.29946,-16.51114 -51.2556,-37.21239 z"
     id="path137"
     transform="matrix(0.00175781,0,0,0.00175781,-0.9,-0.9)" />
  <path
     style="fill:#a40000;stroke:none;stroke-width:0;stroke-opacity:0.2"
     d="m 192.26122,763.32432 c -24.52027,-18.34422 -45.43983,-33.87514 -46.48792,-34.51316 -1.36845,-0.83304 -3.87345,-17.72569 -8.88673,-59.92834 -3.83962,-32.32257 -6.64645,-59.10299 -6.2374,-59.51204 0.40905,-0.40905 22.44819,14.1442 48.97587,32.34054 32.68134,22.41739 48.42046,34.01626 48.81622,35.97491 0.32125,1.58985 2.51295,26.71431 4.87044,55.83214 2.35749,29.11782 4.6419,55.29251 5.07645,58.16598 0.43456,2.87347 0.26479,5.17243 -0.37726,5.10879 -0.64204,-0.0636 -21.22939,-15.12461 -45.74967,-33.46882 z"
     id="path139"
     transform="matrix(0.00175781,0,0,0.00175781,-0.9,-0.9)" />
  <path
     style="fill:#a40000;stroke:none;stroke-width:0;stroke-opacity:0.2"
     d="m 176.23946,616.36047 c -26.43592,-18.12295 -48.353,-33.21425 -48.70462,-33.53622 -0.6708,-0.61425 -16.47214,-130.41341 -15.96761,-131.16509 0.24954,-0.37178 100.70419,61.77507 102.08396,63.15484 0.83582,0.83583 11.45324,126.46946 11.03927,130.62532 -0.37457,3.76023 -1.77277,2.92106 -48.451,-29.07885 z"
     id="path141"
     transform="matrix(0.00175781,0,0,0.00175781,-0.9,-0.9)" />
  <path
     style="fill:#204a87;stroke:none;stroke-width:0;stroke-opacity:0.2"
     d="m 302.24282,702.04298 c -29.07328,-19.95474 -53.58271,-36.70956 -54.4654,-37.23292 -1.55889,-0.92428 -13.78107,-133.7089 -12.43148,-135.05849 0.50205,-0.50206 109.328,66.46004 112.65446,69.31784 0.90478,0.7773 8.17302,137.95885 7.36151,138.94174 -0.14223,0.17225 -24.04582,-16.01342 -53.11909,-35.96817 z"
     id="path143"
     transform="matrix(0.00175781,0,0,0.00175781,-0.9,-0.9)" />
  <path
     style="fill:#204a87;stroke:#666af6;stroke-width:0;stroke-opacity:0.2"
     d="m 524.87566,584.86993 0.35971,-79.68518 66.87347,-37.12383 c 36.78041,-20.41811 67.02519,-37.01867 67.21063,-36.89014 0.18544,0.12853 -1.27453,34.6681 -3.24437,76.75459 -2.44818,52.30638 -4.09791,77.02837 -5.21335,78.12461 -1.69555,1.66638 -124.8184,78.50512 -125.79295,78.50512 -0.30407,0 -0.39098,-35.85833 -0.19314,-79.68517 z"
     id="path145"
     transform="matrix(0.00175781,0,0,0.00175781,-0.9,-0.9)" />
  <path
     style="fill:#204a87;stroke:none;stroke-width:0;stroke-opacity:0.2"
     d="m 676.39751,568.23642 c 10e-4,-14.45312 7.22694,-151.06706 8.0274,-151.76687 2.74845,-2.40283 117.80321,-65.40515 118.38335,-64.82501 0.36801,0.36802 -2.17588,33.71139 -5.6531,74.0964 -4.49334,52.18643 -6.85398,73.9184 -8.16046,75.12502 -1.01103,0.93376 -25.34844,16.3036 -54.08314,34.15519 -28.73469,17.85161 -53.65551,33.36932 -55.37959,34.48382 -2.93838,1.89947 -3.13468,1.82003 -3.13446,-1.26855 z"
     id="path147"
     transform="matrix(0.00175781,0,0,0.00175781,-0.9,-0.9)" />
  <path
     style="fill:#204a87;stroke:none;stroke-width:0;stroke-opacity:0.2"
     d="m 812.90762,483.09116 c -0.0329,-4.48511 11.2283,-139.07706 11.93206,-142.60995 0.44401,-2.22896 13.46355,-10.09317 53.723,-32.4504 29.22534,-16.22966 53.29327,-29.32539 53.48429,-29.10162 0.19102,0.22378 -3.49249,32.51556 -8.18558,71.75953 -6.35131,53.11013 -9.06691,71.85265 -10.62163,73.30832 -2.25172,2.10824 -98.50833,62.22881 -99.63205,62.22881 -0.3724,0 -0.68744,-1.41061 -0.70009,-3.13469 z"
     id="path149"
     transform="matrix(0.00175781,0,0,0.00175781,-0.9,-0.9)" />
  <path
     style="fill:#204a87;stroke:none;stroke-width:0;stroke-opacity:0.2"
     d="m 798.52945,641.91565 c 0.39748,-4.02286 3.01667,-34.27266 5.82043,-67.22177 l 5.09774,-59.90749 50.8517,-31.72987 c 30.23182,-18.86371 51.00158,-31.00967 51.22133,-29.95374 0.2033,0.97687 -3.03442,30.22575 -7.19495,64.99752 -5.07861,42.44473 -8.17611,63.79726 -9.42541,64.97372 -2.20187,2.07349 -95.70539,66.15591 -96.52898,66.15591 -0.3105,0 -0.23933,-3.29143 0.15814,-7.31428 z"
     id="path151"
     transform="matrix(0.00175781,0,0,0.00175781,-0.9,-0.9)" />
  <path
     style="fill:#204a87;stroke:none;stroke-width:0;stroke-opacity:0.2"
     d="m 785.40873,790.54567 c 0.43475,-3.77971 2.8463,-31.34322 5.35899,-61.25226 l 4.56853,-54.38007 48.8516,-33.52348 c 26.86838,-18.43792 49.02706,-33.0944 49.24151,-32.56995 1.06926,2.61495 -13.72772,117.72763 -15.32999,119.25923 -1.68379,1.60953 -78.6259,58.81904 -88.72902,65.97355 l -4.75209,3.36519 z"
     id="path153"
     transform="matrix(0.00175781,0,0,0.00175781,-0.9,-0.9)" />
  <path
     style="fill:#204a87;stroke:none;stroke-width:0;stroke-opacity:0.2"
     d="m 661.11596,880.80731 c 0.11715,-21.29217 5.38474,-116.35509 6.50976,-117.48011 2.68408,-2.68408 106.85171,-73.60261 107.36142,-73.0929 0.44786,0.44786 -9.42527,120.99402 -9.94778,121.45751 -0.0957,0.0849 -23.52752,17.46373 -52.07065,38.61957 l -51.8966,38.46514 z"
     id="path155"
     transform="matrix(0.00175781,0,0,0.00175781,-0.9,-0.9)" />
  <path
     style="fill:#204a87;stroke:#666af6;stroke-width:0;stroke-opacity:0.2"
     d="m 668.45256,725.65763 c 0.46577,-7.17048 1.90188,-37.8013 3.19137,-68.06851 1.4493,-34.0183 2.93741,-55.96584 3.89724,-57.47879 1.24404,-1.96094 112.54169,-72.36959 113.18922,-71.60528 0.0994,0.11732 -2.41032,30.50323 -5.57717,67.52424 l -5.7579,67.31093 -41.79154,28.61714 c -22.98534,15.73943 -47.688,32.69421 -54.8948,37.67732 l -13.10326,9.06015 z"
     id="path157"
     transform="matrix(0.00175781,0,0,0.00175781,-0.9,-0.9)" />
  <path
     style="fill:#204a87;stroke:none;stroke-width:0;stroke-opacity:0.2"
     d="m 523.14558,765.11859 v -70.79977 l 63.73877,-39.73939 c 35.05633,-21.85666 63.96546,-39.15834 64.24252,-38.44818 0.4324,1.10834 -5.39345,136.58256 -5.89442,137.06855 -1.21007,1.17391 -120.8693,82.71857 -121.38183,82.71857 -0.38777,0 -0.70504,-31.8599 -0.70504,-70.79978 z"
     id="path159"
     transform="matrix(0.00175781,0,0,0.00175781,-0.9,-0.9)" />
  <path
     style="fill:#73d216;stroke:#666af6;stroke-width:0;stroke-opacity:0.2"
     d="m 523.47982,925.58021 0.36236,-63.58986 59.74052,-40.9508 c 32.85728,-22.52294 60.041,-40.65031 60.40827,-40.28305 0.67478,0.67479 -4.78075,123.52664 -5.51189,124.12091 -5.2279,4.24917 -114.02592,84.29266 -114.57365,84.29266 -0.43338,0 -0.6249,-28.61544 -0.42561,-63.58986 z"
     id="path161"
     transform="matrix(0.00175781,0,0,0.00175781,-0.9,-0.9)" />
  <path
     style="fill:#73d216;stroke:none;stroke-width:0;stroke-opacity:0.2"
     d="m 668.58524,731.22904 c 0.41937,-3.33842 1.11121,-14.53353 1.53743,-24.87802 1.80253,-43.748 4.98547,-101.19593 5.73932,-103.58735 0.44742,-1.4193 9.68477,-8.36587 20.52745,-15.43684 34.42507,-22.45002 90.10475,-56.94874 90.79659,-56.2569 1.02777,1.02777 -10.27737,131.06197 -11.49519,132.22013 -0.92334,0.87811 -103.04041,71.02516 -106.57981,73.21263 -0.7556,0.46699 -0.973,-1.71359 -0.52579,-5.27365 z"
     id="path163"
     transform="matrix(0.00175781,0,0,0.00175781,-0.9,-0.9)" />
  <path
     style="fill:#204a87;stroke:none;stroke-width:0;stroke-opacity:0.2"
     d="m 524.87285,924.94826 0.36252,-62.92144 22.29116,-15.34063 c 39.0981,-26.90706 93.74759,-63.70932 94.60511,-63.70932 0.4559,0 0.83082,4.23184 0.83316,9.40408 0.006,13.08725 -4.08831,103.18936 -4.92703,108.42967 -0.52923,3.30658 -2.67538,5.72618 -9.37566,10.57023 -4.77912,3.45513 -24.36279,17.84062 -43.51925,31.96775 -19.15647,14.12715 -40.63552,29.92367 -47.73124,35.10341 l -12.9013,9.41768 z"
     id="path165"
     transform="matrix(0.00175781,0,0,0.00175781,-0.9,-0.9)" />
  <path
     style="fill:#204a87;stroke:none;stroke-width:0;stroke-opacity:0.2"
     d="m 526.26877,584.31652 0.3598,-78.85619 29.95374,-16.68727 c 69.45606,-38.69407 100.66059,-55.60272 101.34693,-54.91638 1.29714,1.29714 -5.70692,144.80826 -7.31646,149.91211 -0.56738,1.79915 -59.19038,39.32702 -109.71544,70.235 l -14.98838,9.16893 z"
     id="path167"
     transform="matrix(0.00175781,0,0,0.00175781,-0.9,-0.9)" />
</svg>
